<?xml version="1.0" standalone="no"?>
<!DOCTYPE svg PUBLIC "-//W3C//DTD SVG 20010904//EN"
 "http://www.w3.org/TR/2001/REC-SVG-20010904/DTD/svg10.dtd">
<svg version="1.0" xmlns="http://www.w3.org/2000/svg"
 width="2462.000000pt" height="2462.000000pt" viewBox="0 0 2462.000000 2462.000000"
 preserveAspectRatio="xMidYMid meet">
<metadata>
Created by potrace 1.11, written by Peter Selinger 2001-2013
</metadata>
<g transform="translate(0.000000,2462.000000) scale(0.100000,-0.100000)"
fill="#000000" stroke="none">
<path d="M10386 22688 c-1494 -1494 -1934 -1928 -1967 -1943 -65 -29 -441
-217 -539 -271 -441 -238 -888 -531 -1295 -847 -130 -101 -357 -288 -380 -313
-5 -5 -44 -39 -85 -75 -219 -189 -624 -596 -820 -824 -24 -27 -46 -52 -49 -55
-8 -6 -194 -230 -236 -285 -16 -21 -40 -50 -51 -64 -12 -14 -72 -93 -133 -176
-61 -82 -116 -155 -121 -162 -27 -33 -248 -365 -322 -483 -187 -301 -388 -671
-542 -998 l-39 -83 -1900 -1900 -1900 -1901 1851 -1851 1851 -1852 72 -165
c163 -368 348 -719 595 -1125 55 -90 291 -444 347 -520 21 -28 41 -55 45 -60
277 -382 555 -707 920 -1075 323 -327 569 -544 952 -844 54 -42 250 -186 275
-202 17 -10 32 -21 35 -25 3 -4 84 -59 180 -122 96 -64 180 -120 185 -125 21
-17 357 -214 515 -302 163 -91 515 -267 660 -330 41 -18 98 -43 127 -56 28
-13 55 -24 60 -24 4 0 824 -816 1821 -1812 l1813 -1813 772 776 c425 427 1224
1231 1777 1787 l1005 1011 145 61 c432 184 944 454 1325 698 407 261 842 586
1140 851 23 20 81 72 130 116 141 125 569 556 706 710 164 185 463 551 539
662 8 11 58 81 111 155 380 531 719 1135 975 1738 57 135 88 195 114 221 19
20 639 644 1377 1385 1685 1695 2143 2156 2166 2181 17 20 13 25 -185 221
-112 110 -262 258 -334 329 -73 70 -324 317 -559 548 -235 231 -493 485 -573
564 -141 138 -846 830 -1152 1131 -81 80 -317 312 -525 515 -377 370 -377 370
-417 455 -147 315 -349 699 -466 888 -29 46 -52 85 -52 87 0 21 -326 506 -473
705 -136 183 -406 521 -457 570 -3 3 -23 25 -44 50 -243 281 -634 666 -931
920 -213 181 -323 269 -515 412 -525 390 -1124 745 -1695 1005 l-90 41 -1908
1907 -1907 1907 -1924 -1924z m1841 -1247 c7 -1 -231 -246 -529 -546 -298
-300 -543 -544 -544 -542 -3 3 -26 131 -39 217 -2 14 -13 81 -25 150 -11 69
-23 139 -25 155 -8 61 -16 111 -25 160 -5 28 -12 69 -15 93 -3 24 -13 80 -21
125 -7 45 -14 85 -14 88 0 6 31 11 135 25 17 2 50 6 75 10 25 3 63 7 85 9 35
3 72 7 190 20 28 3 177 14 270 21 22 1 121 5 220 9 99 4 181 8 182 9 1 1 34 0
80 -3z m503 -5 c185 -8 289 -14 350 -21 25 -2 79 -7 120 -10 41 -4 86 -8 100
-10 14 -2 54 -7 90 -10 36 -4 72 -8 80 -10 36 -7 146 -19 153 -17 5 2 6 -10 3
-25 -3 -15 -8 -50 -11 -78 -3 -27 -8 -61 -10 -75 -11 -69 -14 -88 -20 -130 -3
-25 -8 -52 -10 -60 -2 -8 -7 -39 -10 -69 -4 -30 -8 -61 -10 -70 -1 -9 -8 -52
-15 -96 -6 -44 -13 -91 -15 -105 -19 -124 -25 -162 -31 -205 -3 -27 -8 -52
-10 -55 -5 -4 -1054 1041 -1054 1050 0 6 89 5 300 -4z m-1895 -376 c3 -25 8
-54 11 -65 2 -11 6 -36 8 -55 4 -30 14 -99 31 -200 7 -42 13 -78 40 -255 15
-93 32 -202 39 -242 l13 -71 -163 -163 -162 -162 -1 -546 c0 -300 0 -558 -1
-573 l0 -28 -578 0 -577 0 -94 -95 c-51 -52 -96 -95 -100 -95 -3 0 -57 100
-119 223 -61 122 -163 321 -225 442 -62 121 -184 360 -271 530 -87 171 -214
419 -282 551 -68 133 -124 245 -124 248 0 6 243 126 255 126 2 0 32 13 67 29
201 94 766 309 908 346 8 2 67 20 130 40 198 62 652 179 780 201 14 2 36 7 50
10 14 3 36 8 50 10 14 3 59 11 100 19 41 8 98 18 125 23 l50 8 17 -106 c9 -58
20 -125 23 -150z m3166 235 c298 -57 602 -128 839 -197 58 -16 112 -31 120
-33 29 -6 496 -162 565 -189 39 -15 99 -39 135 -53 281 -107 661 -280 935
-426 214 -114 256 -137 495 -281 114 -68 533 -343 572 -375 7 -6 81 -61 163
-123 229 -171 431 -336 664 -546 93 -84 493 -480 581 -577 134 -146 330 -373
402 -465 15 -19 62 -80 106 -135 215 -273 549 -769 684 -1015 13 -23 28 -49
33 -58 12 -21 72 -127 114 -204 67 -123 242 -481 309 -633 111 -253 288 -714
318 -825 2 -8 24 -80 49 -160 37 -119 122 -418 140 -496 51 -219 86 -377 90
-408 3 -21 7 -41 9 -45 3 -5 25 -124 52 -286 3 -16 7 -42 9 -56 3 -15 7 -47
10 -70 3 -24 7 -55 10 -69 2 -14 7 -45 10 -70 3 -25 8 -56 10 -70 2 -14 7 -54
10 -90 3 -36 8 -81 10 -100 6 -49 15 -145 20 -215 13 -193 17 -246 20 -305 4
-74 7 -246 6 -305 -2 -44 42 4 -481 -535 -125 -129 -251 -260 -281 -291 -30
-31 -153 -159 -274 -284 -121 -125 -258 -266 -304 -313 -45 -48 -183 -190
-306 -317 -122 -126 -243 -252 -270 -280 -26 -27 -82 -86 -125 -131 l-78 -80
0 -1633 c0 -898 -3 -1635 -5 -1638 -11 -10 -447 -9 -448 2 0 5 -2 120 -4 255
-1 135 -3 248 -4 252 0 4 -77 7 -171 6 -165 -1 -170 -2 -171 -22 0 -12 0 -128
1 -259 1 -188 -2 -237 -12 -237 -98 -4 -419 -2 -423 2 -3 3 -7 120 -8 259 l-2
254 -162 3 -163 2 -2 -262 -3 -263 -125 2 c-69 1 -169 2 -222 3 l-98 0 0 255
c0 197 -3 255 -12 256 -16 1 -249 1 -263 0 -7 -1 -10 -91 -10 -254 l0 -252
-219 -3 c-132 -1 -222 1 -225 7 -4 5 -6 125 -6 266 l0 256 -704 -706 c-387
-389 -713 -713 -725 -720 -18 -12 -128 -15 -632 -16 l-611 -2 0 -620 0 -620
-807 -805 -807 -805 -72 71 c-40 39 -193 191 -342 337 -148 147 -496 491 -773
766 l-503 498 6 579 6 580 -573 -4 -573 -3 -1038 1037 -1038 1037 2 -172 2
-173 33 0 c19 0 34 -3 34 -7 -1 -5 -7 -35 -14 -68 -8 -33 -28 -123 -45 -200
-17 -77 -44 -198 -60 -270 -16 -71 -32 -141 -35 -155 -2 -14 -11 -54 -20 -90
-8 -36 -17 -76 -19 -90 -3 -14 -12 -54 -21 -90 -15 -63 -72 -319 -82 -370 -3
-14 -18 -81 -34 -150 -16 -69 -54 -240 -85 -380 -31 -140 -58 -262 -61 -269
-3 -11 -21 1 -59 40 l-55 54 -61 265 c-33 146 -62 272 -64 280 -2 8 -8 33 -13
55 -6 22 -13 51 -16 65 -4 26 -71 314 -131 570 -81 347 -165 707 -169 730 -2
14 -5 25 -6 25 -1 0 -4 12 -6 28 -4 24 -2 27 26 27 28 0 30 3 31 38 0 41 -2
416 -4 913 l-2 325 -140 142 c-77 79 -218 223 -313 320 -96 97 -333 339 -528
538 -195 198 -408 417 -475 485 -67 68 -282 288 -479 489 -197 201 -411 419
-475 485 -65 66 -217 222 -339 346 -198 203 -292 303 -451 479 -27 30 -62 69
-78 86 l-29 32 2 133 c2 181 14 439 25 569 2 25 7 79 10 120 4 41 8 86 10 100
2 14 6 54 10 90 4 36 8 76 10 90 2 14 9 63 15 110 12 90 18 130 25 170 2 14 7
43 10 65 3 23 7 50 9 62 3 12 8 43 12 70 5 26 8 50 9 53 1 3 4 19 8 35 4 17 9
44 12 60 2 17 14 75 26 130 11 55 22 109 25 120 10 53 93 382 125 495 88 309
262 810 339 975 5 11 37 85 71 165 65 153 243 521 329 679 275 507 621 1020
978 1451 259 312 557 627 837 885 60 55 116 107 124 115 132 123 523 437 724
581 27 19 60 44 75 55 46 36 381 257 502 331 154 93 351 207 481 276 l106 56
193 -382 c106 -210 232 -458 280 -552 48 -93 198 -389 333 -656 l246 -485
-665 -662 c-366 -364 -669 -662 -673 -662 -4 0 -96 90 -204 199 l-197 199 -21
89 c-27 113 -28 119 -39 173 -5 25 -18 86 -30 135 -12 50 -24 101 -26 115 -3
13 -14 61 -24 106 -11 45 -22 97 -25 115 -3 18 -8 35 -10 39 -2 4 -7 21 -10
38 -3 18 -12 62 -21 99 -9 38 -18 79 -20 93 -3 14 -11 52 -19 85 -8 33 -17 76
-21 95 -4 19 -9 40 -10 45 -13 55 -106 467 -110 489 -3 16 -7 32 -9 36 -5 8
-14 50 -22 103 -6 36 -19 58 -20 34 -1 -10 -18 -90 -38 -177 -2 -8 -22 -94
-44 -190 -22 -96 -42 -186 -45 -200 -3 -14 -23 -106 -46 -205 -23 -99 -43
-187 -45 -195 -3 -14 -30 -134 -42 -187 -3 -13 -7 -23 -10 -23 -3 0 -169 163
-369 363 -200 199 -368 362 -373 362 -9 0 -78 -62 -121 -109 l-24 -27 417
-417 c321 -322 416 -422 413 -437 -3 -11 -12 -51 -21 -90 -9 -38 -18 -78 -21
-88 -2 -10 -6 -27 -9 -37 -3 -10 -8 -27 -10 -37 -17 -86 -103 -451 -132 -561
-9 -34 -13 -66 -9 -70 4 -4 20 -7 34 -7 l27 -1 3 -634 2 -633 -89 -89 -90 -89
-268 137 c-147 75 -376 192 -508 259 -132 67 -364 186 -515 263 -151 77 -387
197 -524 266 -137 70 -252 124 -256 119 -21 -23 -90 -167 -83 -173 4 -4 116
-63 248 -130 132 -68 330 -169 440 -225 268 -137 604 -309 980 -500 171 -87
313 -161 318 -165 4 -3 -365 -381 -821 -840 l-829 -833 -49 7 c-27 4 -62 9
-79 11 -28 4 -69 11 -125 20 -14 2 -43 6 -65 10 -58 8 -157 24 -180 29 -11 2
-42 7 -70 10 -27 4 -86 13 -130 21 -44 7 -116 19 -160 25 -44 7 -87 14 -96 15
-27 5 -81 13 -134 20 -27 4 -54 8 -59 9 -9 1 -22 -55 -40 -166 l-6 -36 53 -7
c28 -4 61 -9 72 -11 11 -2 40 -7 65 -10 25 -3 54 -8 65 -10 10 -2 37 -6 60 -9
22 -3 65 -10 95 -15 30 -5 73 -11 95 -15 22 -3 51 -7 65 -10 30 -5 91 -14 140
-21 19 -2 60 -8 90 -14 30 -5 73 -12 95 -15 103 -15 118 -20 100 -33 -6 -4
-48 -50 -95 -102 -47 -52 -87 -97 -90 -100 -3 -3 -39 -43 -80 -89 -41 -47 -86
-96 -100 -111 -14 -14 -42 -46 -63 -71 -22 -24 -62 -69 -90 -100 -29 -30 -86
-93 -127 -139 -41 -46 -79 -88 -85 -94 -5 -6 -50 -56 -100 -111 -49 -55 -92
-102 -95 -105 -31 -31 -90 -101 -90 -107 0 -5 183 -7 407 -6 225 0 1531 4
2903 8 1372 3 3188 8 4035 10 2422 6 6269 16 7900 20 2345 5 2885 8 2885 13 0
2 -248 252 -551 555 l-551 551 108 18 c60 9 127 19 149 22 22 4 65 11 95 16
30 5 75 13 100 16 52 7 46 6 215 33 152 24 170 27 251 42 l61 11 -7 36 c-5 21
-11 62 -14 92 -4 30 -10 58 -14 62 -4 3 -27 3 -52 -2 -42 -8 -88 -15 -170 -26
-19 -3 -57 -9 -85 -14 -27 -5 -68 -12 -90 -15 -67 -10 -228 -35 -255 -39 -26
-5 -275 -43 -345 -52 -22 -3 -60 -10 -85 -14 l-44 -8 -388 391 c-213 216 -388
399 -388 407 -6 130 0 1334 6 1340 8 7 101 55 789 405 149 76 274 141 279 146
9 8 -54 141 -78 166 -8 8 -25 4 -66 -16 -48 -24 -665 -338 -855 -435 -38 -19
-71 -34 -73 -32 -2 2 -5 372 -7 823 -2 450 -4 827 -4 838 -1 19 -8 20 -216 20
l-214 1 1 -253 c0 -140 -1 -256 -4 -259 -4 -4 -310 -9 -343 -5 -6 1 -11 80
-12 214 0 116 -2 232 -2 257 l-1 46 -212 -1 c-117 0 -215 -3 -218 -7 -3 -4 -5
-120 -5 -257 0 -164 -3 -251 -10 -252 -59 -4 -321 5 -325 11 -3 5 -5 108 -5
228 l0 220 507 508 507 508 -72 67 -72 68 -550 -549 -550 -549 -90 1 c-49 0
-95 -1 -102 -1 -8 -1 -11 -32 -10 -102 l1 -100 -144 -144 c-79 -79 -146 -142
-149 -139 -3 3 -6 114 -6 247 l0 242 -208 0 c-115 0 -211 -4 -214 -9 -3 -5 -7
-121 -9 -258 -1 -137 -4 -252 -7 -254 -5 -6 -1137 1120 -1137 1130 0 7 264
530 470 931 48 94 170 332 270 530 101 198 209 410 241 472 l57 111 -88 46
c-49 25 -91 43 -93 39 -6 -11 -222 -434 -427 -838 -162 -319 -333 -656 -507
-998 l-76 -147 -76 77 -76 78 -615 0 c-338 -1 -617 3 -620 6 -3 4 -5 283 -5
621 l0 613 -143 145 -143 145 6 45 c4 25 8 56 10 70 2 14 11 70 20 125 26 162
56 348 61 375 2 14 7 43 9 65 3 22 13 81 21 130 9 50 18 104 20 120 2 17 6 45
9 63 3 17 8 49 11 70 10 63 -4 61 175 27z m-1486 -3148 c11 -3 42 -8 68 -11
300 -44 573 -175 772 -371 98 -97 122 -125 185 -218 84 -124 190 -357 190
-418 0 -17 -18 -22 -272 -77 l-86 -19 -22 61 c-109 301 -331 520 -633 625 -48
17 -89 30 -92 30 -5 0 -67 12 -140 27 -39 8 -322 14 -356 7 l-26 -5 1 -609 c1
-335 5 -611 7 -614 3 -2 27 -7 55 -10 27 -3 65 -7 84 -10 19 -3 64 -7 100 -10
36 -3 72 -7 80 -10 8 -2 51 -7 95 -11 44 -4 89 -8 100 -10 11 -1 26 -3 33 -3
11 -1 11 -40 -2 -107 -3 -12 -9 -64 -16 -115 -6 -52 -12 -103 -14 -114 -3 -18
-10 -20 -72 -18 -56 1 -255 9 -419 17 l-30 1 2 -455 c1 -250 2 -559 3 -687 l1
-232 47 -7 c26 -4 99 -7 162 -7 128 0 186 5 292 29 15 3 30 5 33 5 13 -1 185
64 230 87 200 103 373 275 489 485 21 38 43 66 49 64 274 -103 317 -121 317
-136 0 -9 -23 -61 -50 -116 -136 -270 -365 -502 -630 -635 -137 -69 -266 -110
-455 -144 -105 -20 -362 -27 -485 -14 -179 18 -170 16 -280 39 -166 34 -393
130 -505 214 -212 159 -336 360 -390 630 -25 128 -25 269 1 425 11 65 66 223
101 289 60 115 146 217 243 288 55 41 188 113 210 113 6 0 -6 14 -27 32 -245
205 -355 446 -346 754 6 231 51 395 152 554 53 84 185 208 275 259 82 47 228
106 286 116 18 3 36 8 40 10 11 7 79 17 225 34 60 8 383 5 420 -2z m-3230
-1512 c211 -87 223 -425 19 -516 -83 -37 -179 -26 -254 29 -47 35 -57 47 -87
111 -88 185 60 416 252 394 22 -3 54 -11 70 -18z m7128 -312 c20 -6 20 -8 7
-31 -5 -9 -21 -45 -35 -79 -14 -35 -36 -86 -49 -115 -13 -29 -56 -129 -96
-223 -94 -221 -94 -222 -118 -275 -10 -25 -146 -342 -302 -705 -155 -363 -292
-682 -305 -710 -84 -187 -507 -1186 -503 -1190 2 -3 306 -7 674 -9 368 -2 674
-5 680 -5 8 -1 11 -44 11 -141 l0 -140 -1096 4 c-603 2 -1103 5 -1112 5 -13 1
6 52 88 239 57 130 110 251 117 267 15 31 281 634 381 860 31 72 65 148 75
170 10 22 37 83 60 135 23 52 50 113 60 135 10 22 50 114 90 205 40 91 88 198
106 238 19 40 34 74 34 77 0 2 13 33 29 67 15 35 86 194 156 353 70 160 159
360 196 445 38 85 69 159 69 165 0 7 -184 9 -590 8 -386 -1 -592 2 -596 8 -5
8 -8 202 -5 271 1 17 49 17 816 15 448 -2 817 -5 820 -8 2 -3 -17 -55 -44
-115 -27 -60 -120 -269 -206 -464 -86 -195 -168 -379 -181 -408 -13 -29 -24
-55 -24 -57 0 -2 -13 -32 -29 -67 -17 -35 -64 -142 -106 -238 -43 -96 -85
-193 -95 -215 -56 -123 -340 -767 -340 -770 0 -2 -15 -36 -34 -77 -18 -40 -93
-208 -166 -373 -73 -165 -141 -319 -151 -342 -11 -24 -23 -53 -28 -65 -5 -13
-25 -58 -45 -100 l-35 -78 97 0 97 0 69 163 c38 89 80 187 93 217 14 30 49
113 80 185 30 71 61 144 68 160 7 17 84 197 170 400 87 204 166 388 176 410
10 22 70 164 135 315 64 151 125 293 135 315 9 22 33 78 52 125 19 47 46 110
60 140 14 30 42 95 62 145 21 49 47 112 60 140 12 27 38 88 58 135 20 47 80
186 133 310 53 124 98 230 101 237 3 8 29 1 81 -24 42 -19 85 -37 95 -40z
m-7033 -1380 c2 -734 2 -1365 1 -1405 -1 -17 -17 -18 -186 -18 l-185 0 0 1105
0 1105 184 0 183 0 3 -787z m8371 714 c154 -50 258 -148 319 -303 13 -32 33
-70 44 -83 48 -54 155 -77 216 -46 55 29 118 147 150 283 9 41 16 52 29 48 9
-2 47 -7 84 -11 37 -3 77 -8 89 -10 11 -3 38 -5 60 -7 l39 -2 -7 -40 c-29
-176 -115 -356 -217 -456 -43 -42 -140 -96 -192 -107 -36 -7 -169 -7 -208 1
-45 8 -118 38 -162 64 -70 44 -124 111 -176 219 -56 116 -93 152 -179 173
-115 28 -197 -58 -249 -261 l-19 -74 -39 -1 c-22 0 -82 5 -133 12 -52 7 -98
10 -103 7 -13 -8 -1 72 24 165 59 223 190 388 344 435 62 18 219 15 286 -6z
m-10646 -371 c87 -40 154 -122 196 -243 24 -67 25 -70 45 -178 33 -174 38
-589 10 -755 -3 -14 -7 -41 -10 -60 -25 -167 -83 -315 -155 -393 l-26 -28 -1
-297 -1 -296 29 -28 c20 -19 41 -28 62 -28 35 0 127 43 181 85 19 14 37 25 42
25 9 0 98 -122 133 -183 23 -38 23 -39 3 -65 -28 -39 -129 -104 -193 -126 -75
-25 -226 -31 -295 -10 -123 35 -211 131 -241 259 -3 17 -7 177 -8 356 l-2 326
-41 47 c-136 154 -190 466 -160 921 12 191 45 389 77 460 65 148 96 192 158
224 47 24 129 19 197 -13z m10945 -781 c298 -32 572 -221 719 -497 76 -141
111 -300 105 -473 -4 -110 -4 -114 -34 -221 -62 -229 -238 -449 -450 -566 -51
-28 -172 -78 -204 -84 -12 -2 -55 -10 -96 -18 -100 -20 -269 -14 -379 14 -425
105 -716 482 -714 925 2 555 491 982 1053 920z m-4735 -985 l0 -125 -1100 0
-1100 0 -3 126 -3 127 1103 -2 1103 -1 0 -125z m-4015 -299 c231 -120 183
-505 -66 -528 -241 -23 -385 254 -236 452 53 70 129 108 203 103 31 -2 74 -14
99 -27z m4000 -167 c13 -3 16 -24 15 -127 l0 -122 -1103 -1 -1102 -1 0 127 0
127 1088 0 c598 1 1094 -1 1102 -3z m-10330 -683 c3 -1 5 -79 6 -174 1 -164
12 -503 19 -577 2 -19 6 -73 9 -120 7 -91 15 -173 21 -230 2 -19 7 -60 10 -90
3 -30 10 -89 16 -130 6 -41 12 -91 14 -110 2 -19 6 -48 9 -65 3 -16 8 -50 11
-75 14 -99 62 -362 94 -505 10 -49 26 -122 35 -161 51 -237 177 -675 274 -954
28 -79 50 -146 48 -147 -2 -2 -741 735 -1644 1637 l-1640 1640 46 1 c26 1 90
3 142 4 114 3 569 14 1255 30 165 3 365 8 445 10 80 2 287 7 460 10 173 4 316
8 317 9 3 2 32 0 53 -3z m21376 -21 c-11 -14 -433 -438 -936 -943 -503 -505
-1213 -1219 -1577 -1585 -365 -367 -663 -664 -663 -660 0 4 22 76 49 160 53
164 111 352 115 371 2 7 8 32 15 57 7 25 15 52 16 60 2 8 17 67 34 130 17 63
32 126 34 140 3 14 10 43 16 65 10 41 56 256 65 310 3 17 10 55 16 85 6 30 13
69 15 85 3 17 9 53 14 80 6 28 13 70 16 95 3 25 8 56 10 70 2 14 7 45 10 70 3
25 8 56 10 70 3 21 8 60 20 155 2 12 6 59 10 105 3 47 8 92 10 100 2 8 6 58
10 110 3 52 8 115 10 140 9 96 18 334 20 535 2 116 3 212 4 215 1 3 603 5
1340 5 l1339 0 -22 -25z m-20526 -1220 c124 -63 133 -237 15 -306 -55 -32
-109 -36 -160 -11 -81 40 -117 114 -100 204 8 43 78 118 117 126 52 10 91 6
128 -13z m17085 -207 c122 -63 123 -236 2 -303 -94 -53 -220 -1 -248 103 -39
147 111 269 246 200z m-15474 -1668 c81 -21 135 -39 177 -60 49 -25 39 -26
-25 -3 -47 17 -84 21 -188 22 -140 1 -169 -3 -255 -32 -305 -105 -504 -388
-500 -707 2 -157 38 -273 126 -407 275 -415 897 -432 1198 -34 38 51 89 143
112 206 23 64 14 2 -12 -82 -45 -143 -109 -250 -209 -351 -265 -267 -656 -335
-991 -172 -312 151 -499 460 -489 805 13 411 317 757 725 825 94 16 248 11
331 -10z m14585 -781 c62 -30 108 -103 108 -174 0 -78 -56 -159 -128 -183
-177 -60 -326 120 -235 283 49 86 160 119 255 74z m-13769 -1940 c49 -10 110
-83 120 -145 10 -67 -42 -156 -105 -180 -115 -44 -232 30 -241 152 -3 47 18
97 58 134 49 47 87 56 168 39z m12219 -364 c57 -19 104 -91 104 -158 0 -120
-126 -203 -236 -157 -137 57 -139 248 -3 312 43 20 79 21 135 3z m-9886 -1258
c84 -33 136 -149 107 -237 -35 -107 -158 -165 -260 -121 -154 65 -161 276 -12
352 52 26 108 28 165 6z m7760 -169 c109 -71 123 -219 30 -310 -68 -66 -176
-71 -255 -11 -131 98 -82 311 80 346 45 9 108 -1 145 -25z m-5300 -922 c84
-67 92 -179 19 -254 -95 -99 -265 -45 -289 91 -13 80 37 165 112 189 52 17
118 6 158 -26z m2765 17 c87 -46 119 -143 75 -232 -38 -79 -130 -114 -214 -82
-75 29 -117 97 -110 177 11 119 143 192 249 137z m-4495 -451 c139 -47 365
-119 420 -132 8 -2 56 -16 105 -30 73 -21 376 -98 435 -110 122 -26 200 -42
270 -55 30 -6 66 -12 80 -15 50 -10 142 -26 168 -30 15 -2 86 -13 157 -24 72
-11 155 -22 185 -26 30 -3 66 -8 80 -10 14 -3 52 -7 85 -10 33 -3 76 -7 95 -9
58 -7 172 -18 220 -21 82 -6 294 -18 360 -21 102 -4 604 -4 715 0 170 7 382
21 475 31 25 2 74 7 110 10 36 3 81 8 100 10 19 2 60 7 90 10 30 3 98 13 150
20 102 15 154 23 210 31 19 2 44 7 56 9 12 3 39 7 60 11 21 3 71 12 109 19 39
8 86 17 105 20 245 41 793 186 1130 299 90 30 166 53 168 51 2 -2 -380 -389
-849 -860 -470 -471 -1177 -1181 -1571 -1578 l-718 -722 -1602 1604 c-882 881
-1594 1599 -1583 1594 11 -6 94 -35 185 -66z"/>
<path d="M6697 12044 c-1 -1 -31 -4 -67 -7 -192 -17 -381 -114 -521 -265 -231
-250 -291 -618 -150 -926 147 -319 464 -512 811 -492 365 20 672 253 780 591
29 89 36 294 16 400 -71 356 -337 622 -687 685 -55 10 -175 20 -182 14z m186
-357 c277 -88 426 -381 334 -654 -53 -157 -174 -275 -337 -329 -66 -22 -224
-25 -285 -5 -289 91 -447 387 -352 660 54 154 164 267 317 323 96 36 220 37
323 5z"/>
<path d="M6647 11436 c-258 -96 -204 -481 69 -491 111 -4 193 45 240 142 61
124 12 273 -110 335 -51 26 -148 33 -199 14z"/>
<path d="M17450 12026 c-171 -38 -305 -111 -392 -214 -33 -38 -36 -46 -27 -65
25 -47 164 -250 198 -288 l36 -41 97 65 c183 123 279 137 357 54 l23 -26 1
-445 0 -446 -45 -47 c-57 -62 -111 -159 -153 -276 -33 -93 -78 -279 -90 -372
-3 -27 -8 -64 -11 -82 -29 -183 -35 -794 -10 -929 2 -10 7 -49 10 -85 4 -36
16 -108 27 -160 11 -52 22 -104 25 -117 10 -50 65 -187 98 -246 92 -164 235
-259 408 -270 170 -11 290 114 383 398 29 88 38 125 60 241 11 59 25 146 30
195 3 30 8 71 10 90 27 231 27 721 -1 932 -10 78 -53 264 -75 329 -46 136
-114 253 -180 314 l-44 41 1 473 c1 519 -3 574 -56 688 -63 136 -160 224 -300
273 -79 27 -290 36 -380 16z m521 -1983 c0 -10 2 -27 5 -38 4 -20 10 -63 19
-125 2 -19 7 -46 10 -60 2 -14 7 -52 10 -85 3 -33 8 -76 10 -95 25 -183 26
-517 4 -690 -20 -161 -58 -329 -69 -309 -13 24 -35 126 -50 229 -30 209 -34
756 -6 906 2 10 7 44 11 74 8 61 8 59 25 148 12 58 29 84 31 45z"/>
<path d="M15103 11951 c-204 -69 -256 -346 -94 -500 58 -55 178 -82 259 -58
57 17 144 110 165 176 36 112 15 218 -59 300 -76 84 -176 114 -271 82z"/>
<path d="M11119 11897 c-1 -16 -1 -194 0 -233 l1 -32 1095 0 1095 1 0 137 0
138 -1095 1 c-837 0 -1095 -3 -1096 -12z"/>
<path d="M8150 11873 c-1 -17 -1 -249 0 -266 0 -14 18 -14 963 -18 270 0 397
-4 397 -11 0 -9 -664 -1568 -729 -1713 -10 -22 -64 -148 -120 -280 -57 -132
-109 -254 -116 -270 -8 -17 -77 -179 -155 -360 -177 -413 -169 -395 -186 -427
-8 -14 -14 -31 -14 -36 0 -6 -15 -43 -34 -84 -51 -112 -60 -138 -50 -147 18
-17 178 -81 184 -74 4 5 14 27 23 50 9 23 25 61 36 85 22 49 187 436 311 728
45 107 90 213 100 235 10 22 64 148 121 280 56 132 129 303 162 380 93 216
127 296 147 345 10 25 29 70 43 100 13 30 134 312 268 627 l243 571 93 0 92
-1 -13 -31 c-7 -17 -75 -170 -151 -341 -75 -170 -146 -330 -157 -355 -11 -25
-25 -58 -33 -75 -7 -16 -59 -133 -115 -260 -55 -126 -107 -243 -114 -260 -43
-96 -63 -140 -151 -340 -53 -121 -105 -240 -117 -265 -11 -25 -54 -121 -95
-214 -40 -93 -84 -192 -97 -220 -13 -28 -36 -80 -51 -116 -16 -36 -45 -102
-67 -148 -21 -46 -38 -85 -38 -88 0 -3 -12 -31 -26 -62 -15 -31 -42 -93 -61
-137 -20 -44 -47 -105 -60 -135 -31 -68 -143 -322 -143 -325 0 -1 165 -2 368
-3 817 -3 1274 -3 1279 1 2 3 4 69 4 148 l0 144 -595 3 c-328 1 -596 6 -596
10 0 6 80 190 157 362 12 25 35 79 53 120 18 41 48 108 66 148 19 41 34 75 34
77 0 2 13 32 29 67 16 35 51 115 79 178 57 132 273 623 304 690 11 25 36 81
55 125 20 44 45 103 58 130 12 28 55 124 95 215 40 91 128 290 196 443 68 154
124 280 124 282 0 2 15 36 34 77 18 40 66 147 105 238 39 91 76 173 81 182 5
9 6 19 2 21 -4 2 -344 5 -757 6 -412 2 -911 3 -1108 4 -280 2 -357 -1 -357
-10z"/>
<path d="M11124 11382 c-5 -4 -9 -65 -9 -137 l0 -130 1098 -3 1097 -2 0 139 0
139 -1088 0 c-599 0 -1093 -3 -1098 -6z"/>
<path d="M14984 11032 c-11 -8 -14 -1994 -2 -2002 3 -3 100 -5 215 -5 l208 0
0 1005 0 1005 -206 2 c-113 1 -210 -2 -215 -5z"/>
<path d="M12189 10406 c-2 -2 -36 -7 -74 -10 -72 -6 -78 -7 -175 -27 -336 -67
-689 -284 -900 -554 -17 -22 -38 -49 -47 -59 -32 -40 -122 -184 -156 -252
l-36 -71 52 -17 c29 -10 93 -30 142 -46 50 -16 118 -37 153 -48 l63 -20 35 71
c81 161 195 299 341 414 124 97 314 178 488 206 85 14 297 19 378 9 l37 -4 -2
-671 -3 -671 -110 1 c-60 1 -172 2 -248 3 -76 1 -140 0 -142 -2 -2 -1 -6 -39
-10 -83 -3 -44 -8 -100 -10 -125 -3 -25 -7 -80 -10 -122 l-6 -78 38 -1 c21 -1
54 -2 73 -4 61 -5 333 -18 373 -18 21 0 41 -5 44 -10 8 -13 8 -1175 0 -1183
-3 -3 -65 -7 -139 -8 -466 -7 -822 188 -991 545 -19 41 -41 91 -48 112 -11 31
-17 37 -34 32 -11 -3 -27 -7 -35 -9 -70 -17 -346 -89 -348 -92 -8 -6 31 -121
68 -200 211 -457 644 -745 1205 -802 89 -9 373 -9 445 0 416 53 695 237 844
559 86 185 119 420 89 634 -27 200 -105 348 -268 512 l-92 92 41 16 c173 69
330 237 412 440 125 310 115 656 -27 937 -48 94 -134 207 -208 273 -19 16 -39
35 -45 41 -25 24 -136 94 -204 128 -69 35 -228 93 -280 102 -13 3 -52 11 -86
19 -33 8 -86 17 -116 20 -30 4 -66 9 -80 11 -30 6 -386 14 -391 10z m684 -504
c77 -34 181 -107 241 -167 143 -146 190 -331 140 -555 -39 -177 -136 -312
-285 -397 -52 -29 -180 -75 -188 -67 -3 3 -7 279 -8 614 l-1 608 27 -8 c16 -4
49 -17 74 -28z m-4 -1804 c115 -55 197 -156 236 -292 18 -61 24 -207 12 -281
-21 -135 -91 -265 -184 -341 -56 -45 -140 -90 -150 -80 -3 3 -7 235 -8 516 -3
448 -1 510 12 510 8 0 45 -14 82 -32z"/>
<path d="M6375 10047 c-126 -43 -209 -121 -274 -259 -35 -76 -77 -236 -64
-248 4 -5 24 -11 43 -14 57 -9 92 -16 143 -26 78 -16 84 -14 92 28 8 46 66
170 91 197 54 58 107 72 155 43 53 -32 73 -61 99 -143 48 -151 224 -247 450
-246 138 0 254 81 325 225 59 118 103 305 74 307 -8 1 -23 3 -34 4 -11 1 -54
6 -95 10 -41 4 -88 8 -103 10 -16 2 -30 -2 -32 -8 -37 -122 -51 -158 -77 -198
-48 -72 -115 -92 -188 -54 -36 19 -43 29 -80 118 -51 124 -137 206 -255 245
-60 19 -222 25 -270 9z"/>
<path d="M15126 8702 c-2 -2 -10 -5 -18 -6 -30 -5 -78 -38 -115 -79 -123 -141
-78 -390 85 -467 175 -83 351 28 380 238 18 131 -56 254 -183 301 -50 19 -136
27 -149 13z"/>
<path d="M11780 17688 c-119 -59 -223 -188 -264 -328 -24 -78 -31 -230 -16
-318 30 -177 148 -324 321 -396 l35 -15 -3 541 c-1 297 -4 542 -6 544 -2 2
-32 -10 -67 -28z"/>
<path d="M11773 16095 c-67 -18 -165 -60 -214 -91 -124 -78 -232 -244 -253
-390 -4 -22 -9 -51 -11 -64 -11 -53 -6 -178 9 -243 35 -151 121 -266 274 -367
65 -44 184 -98 252 -115 l25 -6 -2 193 c-1 106 -3 397 -4 646 -1 323 -5 452
-13 451 -6 0 -34 -7 -63 -14z"/>
<path d="M7012 14913 c-6 -10 -18 -65 -28 -123 -29 -168 -24 -475 11 -680 2
-14 7 -45 11 -70 3 -25 9 -51 13 -58 10 -18 30 95 48 263 8 80 7 366 -1 440
-12 103 -17 140 -22 154 -2 8 -7 30 -10 50 -7 45 -10 47 -22 24z"/>
<path d="M17801 14203 c-119 -24 -258 -103 -339 -192 -100 -109 -163 -263
-168 -411 -11 -335 203 -598 541 -666 31 -6 177 -5 210 1 225 44 405 190 488
395 14 36 29 79 32 95 3 17 8 41 10 55 11 50 6 169 -9 234 -57 246 -257 442
-501 491 -66 13 -196 12 -264 -2z m230 -406 c112 -47 171 -182 132 -301 -20
-63 -92 -137 -149 -154 -132 -39 -264 22 -313 145 -30 73 -8 187 46 249 25 28
94 71 124 77 40 8 122 0 160 -16z"/>
</g>
</svg>
